<svg width="16" height="16" viewBox="0 0 16 16" fill="none" xmlns="http://www.w3.org/2000/svg">
<rect width="16" height="16" rx="2" fill="#539055"/>
<path d="M8.72125 11.535C8.72125 11.5902 8.67648 11.635 8.62125 11.635V11.635C8.44792 11.635 8.28125 11.6183 8.12125 11.585C7.96125 11.5517 7.81792 11.4917 7.69125 11.405C7.57125 11.3183 7.47125 11.1983 7.39125 11.045C7.31792 10.8917 7.28125 10.6917 7.28125 10.445V4.535C7.28125 4.44663 7.35288 4.375 7.44125 4.375V4.375C7.60125 4.375 7.75792 4.395 7.91125 4.435C8.06458 4.46833 8.20125 4.53167 8.32125 4.625C8.44125 4.71167 8.53792 4.83167 8.61125 4.985C8.68458 5.13833 8.72125 5.335 8.72125 5.575V11.535Z" fill="white"/>
</svg>
